<?xml version="1.0" encoding="utf-8"?>
<svg viewBox="0 0 500 500" xmlns="http://www.w3.org/2000/svg">
    <path style="stroke-width: 0px; stroke: rgb(255, 0, 0); paint-order: fill; fill: rgb(136, 207, 255); transform-origin: 239.047px 137.137px;" d="M 455.554 262.137 L 189.048 223.739 L 22.541 12.137 L 289.048 50.534" transform="matrix(0.866025090218, -0.5, 0.5, 0.866025090218, 10.952407833378, -37.136425933115)"/>
    <path style="stroke-width: 0px; stroke: rgb(255, 0, 0); paint-order: fill; fill: rgb(0, 140, 255); transform-origin: 465.575px 257.086px;" d="M 307.424 99.86 L 157.424 359.668 L -9.082 148.065 L 140.918 -111.742" transform="matrix(0.866025090218, -0.5, 0.5, 0.866025090218, 0.000213665193, 0.000026515518)"/>
    <path style="stroke-width: 0px; stroke: rgb(255, 0, 0); paint-order: fill; fill: rgb(17, 46, 153); transform-origin: 493.51px 4.23898px;" d="M 451.25 90.415 L 301.25 350.223 L 34.743 311.826 L 184.744 52.018" transform="matrix(0.866025090218, -0.5, 0.5, 0.866025090218, 0.000206016583, 0.000014551588)"/>
    <path style="stroke-width: 0px; stroke: rgb(255, 0, 0); paint-order: fill; fill: rgb(226, 228, 136); transform-origin: 465.575px 257.086px;" d="M 166.871 143.305 L 90.291 275.946 L -9.082 148.065 L 65.918 18.162" transform="matrix(0.866025090218, -0.5, 0.5, 0.866025090218, 0.0003433649, 0.000026515518)"/>
    <path style="stroke-width: 0px; stroke: rgb(255, 0, 0); paint-order: fill; fill: rgb(145, 249, 102); transform-origin: 523.702px 196.338px;" d="M 224.998 82.557 L 148.418 215.198 L 49.045 87.317 L 124.045 -42.586" transform="matrix(0.866025090218, -0.5, 0.5, 0.866025090218, 0.000021235472, 0.000051436969)"/>
    <path style="stroke-width: 0px; stroke: rgb(255, 0, 0); paint-order: fill; fill: rgb(158, 238, 248); transform-origin: 350px 99.947px;" d="M 479.904 174.946 L 320.001 151.908 L 220.097 24.947 L 380.001 47.985" transform="matrix(0.866025090218, -0.5, 0.5, 0.866025090218, 0.000012159348, 0.000008042512)"/>
    <path style="stroke-width: 0px; stroke: rgb(255, 0, 0); paint-order: fill; fill: rgb(31, 84, 30); transform-origin: 496.467px 43.022px;" d="M 471.038 94.133 L 359.251 287.753 L 200.562 262.609 L 311.014 71.302" transform="matrix(0.866025090218, -0.5, 0.5, 0.866025090218, 0.000268277909, 0.000019059543)"/>
</svg>